<?xml version="1.0" encoding="UTF-8"?>
<svg xmlns="http://www.w3.org/2000/svg" xmlns:xlink="http://www.w3.org/1999/xlink" width="30px" height="30px" viewBox="0 0 30 30" version="1.1">
<g id="surface1">
<path style="fill-rule:evenodd;fill:rgb(29.411765%,92.54902%,45.098039%);fill-opacity:1;stroke-width:1;stroke-linecap:butt;stroke-linejoin:round;stroke:rgb(29.411765%,92.54902%,45.098039%);stroke-opacity:1;stroke-miterlimit:10;" d="M 84.322917 41.71875 C 84.322917 21.197917 100.989583 4.583333 121.510417 4.583333 C 131.354167 4.583333 140.78125 8.489583 147.760417 15.46875 C 154.739583 22.395833 158.645833 31.875 158.645833 41.71875 C 158.645833 62.239583 142.03125 78.854167 121.510417 78.854167 C 100.989583 78.854167 84.322917 62.239583 84.322917 41.71875 Z M 84.322917 41.71875 " transform="matrix(0.075,0,0,0.075,0,0)"/>
<path style="fill-rule:evenodd;fill:rgb(29.411765%,92.54902%,45.098039%);fill-opacity:1;stroke-width:1;stroke-linecap:butt;stroke-linejoin:round;stroke:rgb(29.411765%,92.54902%,45.098039%);stroke-opacity:1;stroke-miterlimit:10;" d="M 162.552083 41.71875 C 162.552083 21.197917 179.21875 4.583333 199.739583 4.583333 C 209.583333 4.583333 219.010417 8.489583 225.989583 15.46875 C 232.96875 22.395833 236.875 31.875 236.875 41.71875 C 236.875 62.239583 220.208333 78.854167 199.739583 78.854167 C 179.21875 78.854167 162.552083 62.239583 162.552083 41.71875 Z M 162.552083 41.71875 " transform="matrix(0.075,0,0,0.075,0,0)"/>
<path style="fill-rule:evenodd;fill:rgb(29.411765%,92.54902%,45.098039%);fill-opacity:1;stroke-width:1;stroke-linecap:butt;stroke-linejoin:round;stroke:rgb(29.411765%,92.54902%,45.098039%);stroke-opacity:1;stroke-miterlimit:10;" d="M 240.78125 41.71875 C 240.78125 21.197917 257.447917 4.583333 277.96875 4.583333 C 287.8125 4.583333 297.239583 8.489583 304.21875 15.46875 C 311.197917 22.395833 315.104167 31.875 315.104167 41.71875 C 315.104167 62.239583 298.4375 78.854167 277.96875 78.854167 C 257.447917 78.854167 240.78125 62.239583 240.78125 41.71875 Z M 240.78125 41.71875 " transform="matrix(0.075,0,0,0.075,0,0)"/>
<path style="fill-rule:evenodd;fill:rgb(29.411765%,92.54902%,45.098039%);fill-opacity:1;stroke-width:1;stroke-linecap:butt;stroke-linejoin:round;stroke:rgb(29.411765%,92.54902%,45.098039%);stroke-opacity:1;stroke-miterlimit:10;" d="M 5.989583 119.895833 C 5.989583 99.375 22.604167 82.708333 43.125 82.708333 C 52.96875 82.708333 62.395833 86.614583 69.375 93.59375 C 76.354167 100.572917 80.260417 110 80.260417 119.895833 C 80.260417 140.364583 63.645833 157.03125 43.125 157.03125 C 22.604167 157.03125 5.989583 140.364583 5.989583 119.895833 Z M 5.989583 119.895833 " transform="matrix(0.075,0,0,0.075,0,0)"/>
<path style="fill-rule:evenodd;fill:rgb(29.411765%,92.54902%,45.098039%);fill-opacity:1;stroke-width:1;stroke-linecap:butt;stroke-linejoin:round;stroke:rgb(29.411765%,92.54902%,45.098039%);stroke-opacity:1;stroke-miterlimit:10;" d="M 84.21875 119.895833 C 84.21875 99.375 100.833333 82.708333 121.354167 82.708333 C 131.197917 82.708333 140.625 86.614583 147.604167 93.59375 C 154.583333 100.572917 158.489583 110 158.489583 119.895833 C 158.489583 140.364583 141.875 157.03125 121.354167 157.03125 C 100.833333 157.03125 84.21875 140.364583 84.21875 119.895833 Z M 84.21875 119.895833 " transform="matrix(0.075,0,0,0.075,0,0)"/>
<path style="fill-rule:evenodd;fill:rgb(29.411765%,92.54902%,45.098039%);fill-opacity:1;stroke-width:1;stroke-linecap:butt;stroke-linejoin:round;stroke:rgb(29.411765%,92.54902%,45.098039%);stroke-opacity:1;stroke-miterlimit:10;" d="M 162.395833 119.895833 C 162.395833 99.375 179.0625 82.708333 199.583333 82.708333 C 209.427083 82.708333 218.854167 86.614583 225.833333 93.59375 C 232.8125 100.572917 236.71875 110 236.71875 119.895833 C 236.71875 140.364583 220.104167 157.03125 199.583333 157.03125 C 179.0625 157.03125 162.395833 140.364583 162.395833 119.895833 Z M 162.395833 119.895833 " transform="matrix(0.075,0,0,0.075,0,0)"/>
<path style="fill-rule:evenodd;fill:rgb(29.411765%,92.54902%,45.098039%);fill-opacity:1;stroke-width:1;stroke-linecap:butt;stroke-linejoin:round;stroke:rgb(29.411765%,92.54902%,45.098039%);stroke-opacity:1;stroke-miterlimit:10;" d="M 240.625 119.895833 C 240.625 99.375 257.291667 82.708333 277.8125 82.708333 C 287.65625 82.708333 297.083333 86.614583 304.0625 93.59375 C 311.041667 100.572917 314.947917 110 314.947917 119.895833 C 314.947917 140.364583 298.333333 157.03125 277.8125 157.03125 C 257.291667 157.03125 240.625 140.364583 240.625 119.895833 Z M 240.625 119.895833 " transform="matrix(0.075,0,0,0.075,0,0)"/>
<path style="fill-rule:evenodd;fill:rgb(29.411765%,92.54902%,45.098039%);fill-opacity:1;stroke-width:1;stroke-linecap:butt;stroke-linejoin:round;stroke:rgb(29.411765%,92.54902%,45.098039%);stroke-opacity:1;stroke-miterlimit:10;" d="M 318.854167 119.895833 C 318.854167 99.375 335.520833 82.708333 356.041667 82.708333 C 365.885417 82.708333 375.3125 86.614583 382.291667 93.59375 C 389.270833 100.572917 393.177083 110 393.177083 119.895833 C 393.177083 140.364583 376.5625 157.03125 356.041667 157.03125 C 335.520833 157.03125 318.854167 140.364583 318.854167 119.895833 Z M 318.854167 119.895833 " transform="matrix(0.075,0,0,0.075,0,0)"/>
<path style="fill-rule:evenodd;fill:rgb(29.411765%,92.54902%,45.098039%);fill-opacity:1;stroke-width:1;stroke-linecap:butt;stroke-linejoin:round;stroke:rgb(29.411765%,92.54902%,45.098039%);stroke-opacity:1;stroke-miterlimit:10;" d="M 6.09375 199.270833 C 6.09375 178.802083 22.760417 162.135417 43.28125 162.135417 C 53.125 162.135417 62.552083 166.041667 69.53125 173.020833 C 76.510417 180 80.416667 189.427083 80.416667 199.270833 C 80.416667 219.791667 63.802083 236.458333 43.28125 236.458333 C 22.760417 236.458333 6.09375 219.791667 6.09375 199.270833 Z M 6.09375 199.270833 " transform="matrix(0.075,0,0,0.075,0,0)"/>
<path style="fill-rule:evenodd;fill:rgb(29.411765%,92.54902%,45.098039%);fill-opacity:1;stroke-width:1;stroke-linecap:butt;stroke-linejoin:round;stroke:rgb(29.411765%,92.54902%,45.098039%);stroke-opacity:1;stroke-miterlimit:10;" d="M 84.322917 199.270833 C 84.322917 178.802083 100.989583 162.135417 121.510417 162.135417 C 131.354167 162.135417 140.78125 166.041667 147.760417 173.020833 C 154.739583 180 158.645833 189.427083 158.645833 199.270833 C 158.645833 219.791667 142.03125 236.458333 121.510417 236.458333 C 100.989583 236.458333 84.322917 219.791667 84.322917 199.270833 Z M 84.322917 199.270833 " transform="matrix(0.075,0,0,0.075,0,0)"/>
<path style="fill-rule:evenodd;fill:rgb(29.411765%,92.54902%,45.098039%);fill-opacity:1;stroke-width:1;stroke-linecap:butt;stroke-linejoin:round;stroke:rgb(29.411765%,92.54902%,45.098039%);stroke-opacity:1;stroke-miterlimit:10;" d="M 162.552083 199.270833 C 162.552083 178.802083 179.21875 162.135417 199.739583 162.135417 C 209.583333 162.135417 219.010417 166.041667 225.989583 173.020833 C 232.96875 180 236.875 189.427083 236.875 199.270833 C 236.875 219.791667 220.208333 236.458333 199.739583 236.458333 C 179.21875 236.458333 162.552083 219.791667 162.552083 199.270833 Z M 162.552083 199.270833 " transform="matrix(0.075,0,0,0.075,0,0)"/>
<path style="fill-rule:evenodd;fill:rgb(29.411765%,92.54902%,45.098039%);fill-opacity:1;stroke-width:1;stroke-linecap:butt;stroke-linejoin:round;stroke:rgb(29.411765%,92.54902%,45.098039%);stroke-opacity:1;stroke-miterlimit:10;" d="M 240.78125 199.270833 C 240.78125 178.802083 257.447917 162.135417 277.96875 162.135417 C 287.8125 162.135417 297.239583 166.041667 304.21875 173.020833 C 311.197917 180 315.104167 189.427083 315.104167 199.270833 C 315.104167 219.791667 298.4375 236.458333 277.96875 236.458333 C 257.447917 236.458333 240.78125 219.791667 240.78125 199.270833 Z M 240.78125 199.270833 " transform="matrix(0.075,0,0,0.075,0,0)"/>
<path style="fill-rule:evenodd;fill:rgb(29.411765%,92.54902%,45.098039%);fill-opacity:1;stroke-width:1;stroke-linecap:butt;stroke-linejoin:round;stroke:rgb(29.411765%,92.54902%,45.098039%);stroke-opacity:1;stroke-miterlimit:10;" d="M 319.010417 199.270833 C 319.010417 178.802083 335.677083 162.135417 356.145833 162.135417 C 366.041667 162.135417 375.46875 166.041667 382.447917 173.020833 C 389.427083 180 393.333333 189.427083 393.333333 199.270833 C 393.333333 219.791667 376.666667 236.458333 356.145833 236.458333 C 335.677083 236.458333 319.010417 219.791667 319.010417 199.270833 Z M 319.010417 199.270833 " transform="matrix(0.075,0,0,0.075,0,0)"/>
<path style="fill-rule:evenodd;fill:rgb(29.411765%,92.54902%,45.098039%);fill-opacity:1;stroke-width:1;stroke-linecap:butt;stroke-linejoin:round;stroke:rgb(29.411765%,92.54902%,45.098039%);stroke-opacity:1;stroke-miterlimit:10;" d="M 6.979167 278.854167 C 6.979167 258.333333 23.645833 241.666667 44.166667 241.666667 C 54.010417 241.666667 63.4375 245.572917 70.416667 252.552083 C 77.395833 259.53125 81.302083 268.958333 81.302083 278.854167 C 81.302083 299.322917 64.6875 315.989583 44.166667 315.989583 C 23.645833 315.989583 6.979167 299.322917 6.979167 278.854167 Z M 6.979167 278.854167 " transform="matrix(0.075,0,0,0.075,0,0)"/>
<path style="fill-rule:evenodd;fill:rgb(29.411765%,92.54902%,45.098039%);fill-opacity:1;stroke-width:1;stroke-linecap:butt;stroke-linejoin:round;stroke:rgb(29.411765%,92.54902%,45.098039%);stroke-opacity:1;stroke-miterlimit:10;" d="M 85.208333 278.854167 C 85.208333 258.333333 101.875 241.666667 122.395833 241.666667 C 132.239583 241.666667 141.666667 245.572917 148.645833 252.552083 C 155.625 259.53125 159.53125 268.958333 159.53125 278.854167 C 159.53125 299.322917 142.916667 315.989583 122.395833 315.989583 C 101.875 315.989583 85.208333 299.322917 85.208333 278.854167 Z M 85.208333 278.854167 " transform="matrix(0.075,0,0,0.075,0,0)"/>
<path style="fill-rule:evenodd;fill:rgb(29.411765%,92.54902%,45.098039%);fill-opacity:1;stroke-width:1;stroke-linecap:butt;stroke-linejoin:round;stroke:rgb(29.411765%,92.54902%,45.098039%);stroke-opacity:1;stroke-miterlimit:10;" d="M 163.4375 278.854167 C 163.4375 258.333333 180.104167 241.666667 200.625 241.666667 C 210.46875 241.666667 219.895833 245.572917 226.875 252.552083 C 233.854167 259.53125 237.760417 268.958333 237.760417 278.854167 C 237.760417 299.322917 221.09375 315.989583 200.625 315.989583 C 180.104167 315.989583 163.4375 299.322917 163.4375 278.854167 Z M 163.4375 278.854167 " transform="matrix(0.075,0,0,0.075,0,0)"/>
<path style="fill-rule:evenodd;fill:rgb(29.411765%,92.54902%,45.098039%);fill-opacity:1;stroke-width:1;stroke-linecap:butt;stroke-linejoin:round;stroke:rgb(29.411765%,92.54902%,45.098039%);stroke-opacity:1;stroke-miterlimit:10;" d="M 241.666667 278.854167 C 241.666667 258.333333 258.333333 241.666667 278.802083 241.666667 C 288.697917 241.666667 298.125 245.572917 305.104167 252.552083 C 312.083333 259.53125 315.989583 268.958333 315.989583 278.854167 C 315.989583 299.322917 299.322917 315.989583 278.802083 315.989583 C 258.333333 315.989583 241.666667 299.322917 241.666667 278.854167 Z M 241.666667 278.854167 " transform="matrix(0.075,0,0,0.075,0,0)"/>
<path style="fill-rule:evenodd;fill:rgb(29.411765%,92.54902%,45.098039%);fill-opacity:1;stroke-width:1;stroke-linecap:butt;stroke-linejoin:round;stroke:rgb(29.411765%,92.54902%,45.098039%);stroke-opacity:1;stroke-miterlimit:10;" d="M 319.895833 278.854167 C 319.895833 258.333333 336.5625 241.666667 357.03125 241.666667 C 366.927083 241.666667 376.354167 245.572917 383.333333 252.552083 C 390.3125 259.53125 394.21875 268.958333 394.21875 278.854167 C 394.21875 299.322917 377.552083 315.989583 357.03125 315.989583 C 336.5625 315.989583 319.895833 299.322917 319.895833 278.854167 Z M 319.895833 278.854167 " transform="matrix(0.075,0,0,0.075,0,0)"/>
<path style="fill-rule:evenodd;fill:rgb(29.411765%,92.54902%,45.098039%);fill-opacity:1;stroke-width:1;stroke-linecap:butt;stroke-linejoin:round;stroke:rgb(29.411765%,92.54902%,45.098039%);stroke-opacity:1;stroke-miterlimit:10;" d="M 85.208333 358.385417 C 85.208333 337.864583 101.875 321.25 122.395833 321.25 C 132.239583 321.25 141.666667 325.15625 148.645833 332.135417 C 155.625 339.0625 159.53125 348.541667 159.53125 358.385417 C 159.53125 378.90625 142.864583 395.520833 122.395833 395.520833 C 101.875 395.520833 85.208333 378.90625 85.208333 358.385417 Z M 85.208333 358.385417 " transform="matrix(0.075,0,0,0.075,0,0)"/>
<path style="fill-rule:evenodd;fill:rgb(29.411765%,92.54902%,45.098039%);fill-opacity:1;stroke-width:1;stroke-linecap:butt;stroke-linejoin:round;stroke:rgb(29.411765%,92.54902%,45.098039%);stroke-opacity:1;stroke-miterlimit:10;" d="M 163.4375 358.385417 C 163.4375 337.864583 180.104167 321.25 200.625 321.25 C 210.46875 321.25 219.895833 325.15625 226.875 332.135417 C 233.854167 339.0625 237.760417 348.541667 237.760417 358.385417 C 237.760417 378.90625 221.09375 395.520833 200.625 395.520833 C 180.104167 395.520833 163.4375 378.90625 163.4375 358.385417 Z M 163.4375 358.385417 " transform="matrix(0.075,0,0,0.075,0,0)"/>
<path style="fill-rule:evenodd;fill:rgb(29.411765%,92.54902%,45.098039%);fill-opacity:1;stroke-width:1;stroke-linecap:butt;stroke-linejoin:round;stroke:rgb(29.411765%,92.54902%,45.098039%);stroke-opacity:1;stroke-miterlimit:10;" d="M 241.666667 358.385417 C 241.666667 337.864583 258.333333 321.25 278.802083 321.25 C 288.697917 321.25 298.125 325.15625 305.104167 332.135417 C 312.083333 339.0625 315.989583 348.541667 315.989583 358.385417 C 315.989583 378.90625 299.322917 395.520833 278.802083 395.520833 C 258.333333 395.520833 241.666667 378.90625 241.666667 358.385417 Z M 241.666667 358.385417 " transform="matrix(0.075,0,0,0.075,0,0)"/>
</g>
</svg>
